<mxfile host="app.diagrams.net" modified="2023-05-20T15:40:44.970Z" agent="Mozilla/5.0 (Windows NT 10.0; Win64; x64) AppleWebKit/537.36 (KHTML, like Gecko) Chrome/110.0.0.0 YaBrowser/23.3.4.605 Yowser/2.5 Safari/537.36" etag="Z4QOcKIMNYqM3xjASRHu" version="21.3.2" type="github">
  <diagram id="C5RBs43oDa-KdzZeNtuy" name="Page-1">
    <mxGraphModel dx="1386" dy="797" grid="1" gridSize="10" guides="1" tooltips="1" connect="1" arrows="1" fold="1" page="1" pageScale="1" pageWidth="827" pageHeight="1169" math="0" shadow="0">
      <root>
        <mxCell id="WIyWlLk6GJQsqaUBKTNV-0" />
        <mxCell id="WIyWlLk6GJQsqaUBKTNV-1" parent="WIyWlLk6GJQsqaUBKTNV-0" />
        <mxCell id="kqNLVyGExUY1VOssnlJY-4" style="edgeStyle=orthogonalEdgeStyle;rounded=0;orthogonalLoop=1;jettySize=auto;html=1;exitX=0.5;exitY=1;exitDx=0;exitDy=0;entryX=0.5;entryY=0;entryDx=0;entryDy=0;" edge="1" parent="WIyWlLk6GJQsqaUBKTNV-1" source="kqNLVyGExUY1VOssnlJY-2" target="kqNLVyGExUY1VOssnlJY-3">
          <mxGeometry relative="1" as="geometry" />
        </mxCell>
        <mxCell id="kqNLVyGExUY1VOssnlJY-2" value="Start" style="rounded=1;whiteSpace=wrap;html=1;" vertex="1" parent="WIyWlLk6GJQsqaUBKTNV-1">
          <mxGeometry x="294" y="70" width="120" height="60" as="geometry" />
        </mxCell>
        <mxCell id="kqNLVyGExUY1VOssnlJY-5" style="edgeStyle=orthogonalEdgeStyle;rounded=0;orthogonalLoop=1;jettySize=auto;html=1;" edge="1" parent="WIyWlLk6GJQsqaUBKTNV-1" source="kqNLVyGExUY1VOssnlJY-3" target="kqNLVyGExUY1VOssnlJY-6">
          <mxGeometry relative="1" as="geometry">
            <mxPoint x="354" y="300" as="targetPoint" />
          </mxGeometry>
        </mxCell>
        <mxCell id="kqNLVyGExUY1VOssnlJY-18" style="edgeStyle=orthogonalEdgeStyle;rounded=0;orthogonalLoop=1;jettySize=auto;html=1;" edge="1" parent="WIyWlLk6GJQsqaUBKTNV-1" source="kqNLVyGExUY1VOssnlJY-3" target="kqNLVyGExUY1VOssnlJY-17">
          <mxGeometry relative="1" as="geometry" />
        </mxCell>
        <mxCell id="kqNLVyGExUY1VOssnlJY-3" value="i = 2,&amp;nbsp; N" style="shape=parallelogram;perimeter=parallelogramPerimeter;whiteSpace=wrap;html=1;fixedSize=1;" vertex="1" parent="WIyWlLk6GJQsqaUBKTNV-1">
          <mxGeometry x="294" y="190" width="120" height="60" as="geometry" />
        </mxCell>
        <mxCell id="kqNLVyGExUY1VOssnlJY-11" style="edgeStyle=orthogonalEdgeStyle;rounded=0;orthogonalLoop=1;jettySize=auto;html=1;entryX=0.5;entryY=0;entryDx=0;entryDy=0;" edge="1" parent="WIyWlLk6GJQsqaUBKTNV-1" source="kqNLVyGExUY1VOssnlJY-6" target="kqNLVyGExUY1VOssnlJY-9">
          <mxGeometry relative="1" as="geometry" />
        </mxCell>
        <mxCell id="kqNLVyGExUY1VOssnlJY-12" style="edgeStyle=orthogonalEdgeStyle;rounded=0;orthogonalLoop=1;jettySize=auto;html=1;entryX=0.5;entryY=0;entryDx=0;entryDy=0;" edge="1" parent="WIyWlLk6GJQsqaUBKTNV-1" source="kqNLVyGExUY1VOssnlJY-6" target="kqNLVyGExUY1VOssnlJY-7">
          <mxGeometry relative="1" as="geometry" />
        </mxCell>
        <mxCell id="kqNLVyGExUY1VOssnlJY-6" value="Xi &amp;gt; max" style="rhombus;whiteSpace=wrap;html=1;" vertex="1" parent="WIyWlLk6GJQsqaUBKTNV-1">
          <mxGeometry x="314" y="290" width="80" height="80" as="geometry" />
        </mxCell>
        <mxCell id="kqNLVyGExUY1VOssnlJY-13" style="edgeStyle=orthogonalEdgeStyle;rounded=0;orthogonalLoop=1;jettySize=auto;html=1;exitX=1;exitY=0.5;exitDx=0;exitDy=0;exitPerimeter=0;entryX=0;entryY=0.5;entryDx=0;entryDy=0;" edge="1" parent="WIyWlLk6GJQsqaUBKTNV-1" source="kqNLVyGExUY1VOssnlJY-7" target="kqNLVyGExUY1VOssnlJY-3">
          <mxGeometry relative="1" as="geometry">
            <mxPoint x="120" y="210" as="targetPoint" />
            <Array as="points">
              <mxPoint x="621" y="400" />
              <mxPoint x="621" y="560" />
              <mxPoint x="120" y="560" />
              <mxPoint x="120" y="220" />
            </Array>
          </mxGeometry>
        </mxCell>
        <mxCell id="kqNLVyGExUY1VOssnlJY-14" style="edgeStyle=orthogonalEdgeStyle;rounded=0;orthogonalLoop=1;jettySize=auto;html=1;exitX=0;exitY=0.5;exitDx=0;exitDy=0;entryX=0.5;entryY=0;entryDx=0;entryDy=0;" edge="1" parent="WIyWlLk6GJQsqaUBKTNV-1" source="kqNLVyGExUY1VOssnlJY-7" target="kqNLVyGExUY1VOssnlJY-10">
          <mxGeometry relative="1" as="geometry" />
        </mxCell>
        <mxCell id="kqNLVyGExUY1VOssnlJY-7" value="Xi &amp;lt; min" style="rhombus;whiteSpace=wrap;html=1;" vertex="1" parent="WIyWlLk6GJQsqaUBKTNV-1">
          <mxGeometry x="460" y="360" width="80" height="80" as="geometry" />
        </mxCell>
        <mxCell id="kqNLVyGExUY1VOssnlJY-16" style="edgeStyle=orthogonalEdgeStyle;rounded=0;orthogonalLoop=1;jettySize=auto;html=1;" edge="1" parent="WIyWlLk6GJQsqaUBKTNV-1" source="kqNLVyGExUY1VOssnlJY-9">
          <mxGeometry relative="1" as="geometry">
            <mxPoint x="234" y="560" as="targetPoint" />
          </mxGeometry>
        </mxCell>
        <mxCell id="kqNLVyGExUY1VOssnlJY-9" value="max = Xi&lt;br&gt;imax = i" style="rounded=0;whiteSpace=wrap;html=1;" vertex="1" parent="WIyWlLk6GJQsqaUBKTNV-1">
          <mxGeometry x="174" y="380" width="120" height="60" as="geometry" />
        </mxCell>
        <mxCell id="kqNLVyGExUY1VOssnlJY-15" style="edgeStyle=orthogonalEdgeStyle;rounded=0;orthogonalLoop=1;jettySize=auto;html=1;" edge="1" parent="WIyWlLk6GJQsqaUBKTNV-1" source="kqNLVyGExUY1VOssnlJY-10">
          <mxGeometry relative="1" as="geometry">
            <mxPoint x="400" y="560" as="targetPoint" />
          </mxGeometry>
        </mxCell>
        <mxCell id="kqNLVyGExUY1VOssnlJY-10" value="min = Xi&lt;br&gt;imin = i" style="rounded=0;whiteSpace=wrap;html=1;" vertex="1" parent="WIyWlLk6GJQsqaUBKTNV-1">
          <mxGeometry x="340" y="470" width="120" height="60" as="geometry" />
        </mxCell>
        <mxCell id="kqNLVyGExUY1VOssnlJY-19" style="edgeStyle=orthogonalEdgeStyle;rounded=0;orthogonalLoop=1;jettySize=auto;html=1;" edge="1" parent="WIyWlLk6GJQsqaUBKTNV-1" source="kqNLVyGExUY1VOssnlJY-17" target="kqNLVyGExUY1VOssnlJY-20">
          <mxGeometry relative="1" as="geometry">
            <mxPoint x="640" y="280" as="targetPoint" />
          </mxGeometry>
        </mxCell>
        <mxCell id="kqNLVyGExUY1VOssnlJY-17" value="max, imax&lt;br&gt;min, imin" style="shape=parallelogram;perimeter=parallelogramPerimeter;whiteSpace=wrap;html=1;fixedSize=1;" vertex="1" parent="WIyWlLk6GJQsqaUBKTNV-1">
          <mxGeometry x="580" y="190" width="120" height="60" as="geometry" />
        </mxCell>
        <mxCell id="kqNLVyGExUY1VOssnlJY-20" value="end" style="ellipse;whiteSpace=wrap;html=1;" vertex="1" parent="WIyWlLk6GJQsqaUBKTNV-1">
          <mxGeometry x="580" y="280" width="120" height="80" as="geometry" />
        </mxCell>
        <mxCell id="kqNLVyGExUY1VOssnlJY-21" value="No" style="text;html=1;align=center;verticalAlign=middle;resizable=0;points=[];autosize=1;strokeColor=none;fillColor=none;" vertex="1" parent="WIyWlLk6GJQsqaUBKTNV-1">
          <mxGeometry x="400" y="298" width="40" height="30" as="geometry" />
        </mxCell>
        <mxCell id="kqNLVyGExUY1VOssnlJY-22" value="No" style="text;html=1;align=center;verticalAlign=middle;resizable=0;points=[];autosize=1;strokeColor=none;fillColor=none;" vertex="1" parent="WIyWlLk6GJQsqaUBKTNV-1">
          <mxGeometry x="555" y="370" width="40" height="30" as="geometry" />
        </mxCell>
        <mxCell id="kqNLVyGExUY1VOssnlJY-23" value="Yes" style="text;html=1;align=center;verticalAlign=middle;resizable=0;points=[];autosize=1;strokeColor=none;fillColor=none;" vertex="1" parent="WIyWlLk6GJQsqaUBKTNV-1">
          <mxGeometry x="410" y="368" width="40" height="30" as="geometry" />
        </mxCell>
        <mxCell id="kqNLVyGExUY1VOssnlJY-25" value="Yes" style="text;html=1;align=center;verticalAlign=middle;resizable=0;points=[];autosize=1;strokeColor=none;fillColor=none;" vertex="1" parent="WIyWlLk6GJQsqaUBKTNV-1">
          <mxGeometry x="260" y="298" width="40" height="30" as="geometry" />
        </mxCell>
      </root>
    </mxGraphModel>
  </diagram>
</mxfile>
